nColumns=19
nRows=82
DataType=double
version=3
OpenSimVersion=4.1
endheader
time	ground_force_calcn_r_vx	ground_force_calcn_r_vy	ground_force_calcn_r_vz	ground_force_calcn_r_px	ground_force_calcn_r_py	ground_force_calcn_r_pz	ground_force_calcn_r_mx	ground_force_calcn_r_my	ground_force_calcn_r_mz	ground_force_calcn_l_vx	ground_force_calcn_l_vy	ground_force_calcn_l_vz	ground_force_calcn_l_px	ground_force_calcn_l_py	ground_force_calcn_l_pz	ground_force_calcn_l_mx	ground_force_calcn_l_my	ground_force_calcn_l_mz
0.19	-17.9927	34.6924	-7.97414	0.985308	0	-0.240276	-0.195931	0.377782	-0.0868343	0	0	0	0	0	0	0	0	0
0.2	-56.9878	129.681	-17.8496	1.0075	0	-0.256463	-0.741578	1.68752	-0.232276	0	0	0	0	0	0	0	0	0
0.21	-127.831	350.039	-32.1718	1.00798	0	-0.261886	-1.07031	2.93082	-0.26937	0	0	0	0	0	0	0	0	0
0.22	-193.034	679.823	-44.8907	0.992048	0	-0.267399	-0.988764	3.48221	-0.229941	0	0	0	0	0	0	0	0	0
0.23	-216.893	1031.63	-44.3666	0.959446	0	-0.274719	-0.605168	2.87841	-0.12379	0	0	0	0	0	0	0	0	0
0.24	-232.302	1343.91	-24.6283	0.92412	0	-0.281503	-0.225646	1.30541	-0.0239228	0	0	0	0	0	0	0	0	0
0.25	-263.328	1585.02	2.81518	0.896468	0	-0.285493	0.0475529	-0.28623	-0.000508378	0	0	0	0	0	0	0	0	0
0.26	-282.418	1755.6	15.2244	0.87041	0	-0.287544	0.128639	-0.799658	-0.00693457	0	0	0	0	0	0	0	0	0
0.27	-263.745	1886.02	3.2691	0.840182	0	-0.288475	-0.0485035	0.346845	0.000601197	0	0	0	0	0	0	0	0	0
0.28	-210.803	1994.52	-19.3103	0.807708	0	-0.287587	-0.310201	2.93498	-0.0284154	0	0	0	0	0	0	0	0	0
0.29	-140.732	2067.65	-35.9504	0.774808	0	-0.285254	-0.413818	6.07985	-0.105711	0	0	0	0	0	0	0	0	0
0.3	-63.3576	2083.73	-43.7329	0.740605	0	-0.283128	-0.264777	8.7081	-0.182764	0	0	0	0	0	0	0	0	0
0.31	14.4154	2036.32	-45.363	0.705334	0	-0.281859	0.0710432	10.0356	-0.223561	0	0	0	0	0	0	0	0	0
0.32	87.079	1932.09	-40.4969	0.670271	0	-0.280691	0.442279	9.81322	-0.205686	0	0	0	0	0	0	0	0	0
0.33	155.928	1772.36	-30.7771	0.635245	0	-0.279252	0.732055	8.32094	-0.144493	0	0	0	0	0	0	0	0	0
0.34	215.335	1554.33	-21.5271	0.599624	0	-0.278007	0.854867	6.17058	-0.085461	0	0	0	0	0	0	0	0	0
0.35	248.7	1286.37	-14.9417	0.564267	0	-0.277015	0.778773	4.02811	-0.046788	0	0	0	0	0	0	0	0	0
0.36	246.89	990.763	-9.07397	0.53066	0	-0.275585	0.587354	2.35704	-0.0215871	0	0	0	0	0	0	0	0	0
0.37	214.274	697.786	-3.30228	0.4983	0	-0.273299	0.404569	1.31748	-0.00623501	0	0	0	0	0	0	0	0	0
0.38	163.808	440.269	0.864398	0.463865	0	-0.270783	0.304045	0.817186	0.00160441	0	0	0	0	0	0	0	0	0
0.39	109.713	245.303	3.38987	0.431763	0	-0.268298	0.28179	0.630042	0.00870661	0	0	0	0	0	0	0	0	0
0.4	62.8807	120.627	5.62077	0.423517	0	-0.261319	0.276981	0.531347	0.0247588	0	0	0	0	0	0	0	0	0
0.41	28.3739	52.2201	6.91777	0.468985	0	-0.238751	0.215646	0.396881	0.0525762	0	0	0	0	0	0	0	0	0
0.42	8.46212	19.4647	5.41922	0.597647	0	-0.191703	0.0775726	0.178434	0.0496782	0	0	0	0	0	0	0	0	0
0.43	0	0	0	0	0	0	0	0	0	0	0	0	0	0	0	0	0	0
0.44	0	0	0	0	0	0	0	0	0	0	0	0	0	0	0	0	0	0
0.45	0	0	0	0	0	0	0	0	0	0	0	0	0	0	0	0	0	0
0.46	0	0	0	0	0	0	0	0	0	0	0	0	0	0	0	0	0	0
0.47	0	0	0	0	0	0	0	0	0	0	0	0	0	0	0	0	0	0
0.48	0	0	0	0	0	0	0	0	0	0	0	0	0	0	0	0	0	0
0.49	0	0	0	0	0	0	0	0	0	0	0	0	0	0	0	0	0	0
0.5	0	0	0	0	0	0	0	0	0	0	0	0	0	0	0	0	0	0
0.51	0	0	0	0	0	0	0	0	0	0	0	0	0	0	0	0	0	0
0.52	0	0	0	0	0	0	0	0	0	-14.2539	29.6156	2.86926	0.873291	0	-0.467894	-1.78231	3.70313	0.358772
0.53	0	0	0	0	0	0	0	0	0	-47.2743	117.343	13.4596	0.91768	0	-0.420558	-0.337642	0.838082	0.0961313
0.54	0	0	0	0	0	0	0	0	0	-108.379	341.235	38.5587	0.933616	0	-0.405931	1.10636	-3.48341	-0.393616
0.55	0	0	0	0	0	0	0	0	0	-164.192	701.836	74.3765	0.929492	0	-0.394086	1.87455	-8.01277	-0.849146
0.56	0	0	0	0	0	0	0	0	0	-184.258	1094.53	96.3452	0.906906	0	-0.384526	1.84916	-10.9844	-0.966891
0.57	0	0	0	0	0	0	0	0	0	-193.825	1427.66	79.4938	0.874078	0	-0.379737	1.52734	-11.25	-0.626414
0.58	0	0	0	0	0	0	0	0	0	-209.985	1691.51	34.4939	0.842836	0	-0.377467	1.13077	-9.10881	-0.18575
0.59	0	0	0	0	0	0	0	0	0	-218	1916.76	-1.22053	0.814715	0	-0.374089	0.679887	-5.9779	0.00380655
0.6	0	0	0	0	0	0	0	0	0	-197.139	2101.74	-9.79549	0.785935	0	-0.37067	0.317154	-3.38126	0.0157589
0.61	0	0	0	0	0	0	0	0	0	-145.244	2216.82	-4.25698	0.755132	0	-0.370048	0.141888	-2.16561	0.00415863
0.62	0	0	0	0	0	0	0	0	0	-78.478	2248.69	2.25234	0.722945	0	-0.371657	0.0814907	-2.33502	-0.0023388
0.63	0	0	0	0	0	0	0	0	0	-4.89142	2207.9	9.81192	0.689775	0	-0.372781	0.00721931	-3.25867	-0.0144815
0.64	0	0	0	0	0	0	0	0	0	74.2717	2103.81	16.573	0.655332	0	-0.372853	-0.142708	-4.04233	-0.031844
0.65	0	0	0	0	0	0	0	0	0	154.234	1936.76	15.4059	0.619202	0	-0.37324	-0.313742	-3.93975	-0.0313386
0.66	0	0	0	0	0	0	0	0	0	221.292	1706.38	6.79769	0.582648	0	-0.374332	-0.346501	-2.67187	-0.0106439
0.67	0	0	0	0	0	0	0	0	0	265.017	1423.55	-1.43737	0.547934	0	-0.374651	-0.0921424	-0.494947	0.000499754
0.68	0	0	0	0	0	0	0	0	0	278.754	1107.88	-7.41346	0.516764	0	-0.373123	0.494932	1.96706	-0.0131627
0.69	0	0	0	0	0	0	0	0	0	254.856	781.953	-15.892	0.488159	0	-0.371463	1.29443	3.97158	-0.0807164
0.7	0	0	0	0	0	0	0	0	0	200.065	482.867	-26.1027	0.455175	0	-0.37281	2.0286	4.89612	-0.264673
0.71	0	0	0	0	0	0	0	0	0	135.416	256.786	-29.4998	0.410763	0	-0.375829	2.36487	4.48445	-0.515178
0.72	0	0	0	0	0	0	0	0	0	74.6194	121.698	-21.6824	0.388968	0	-0.365276	2.01687	3.28935	-0.586048
0.73	0	0	0	0	0	0	0	0	0	25.9939	52.2575	-9.53885	0.470247	0	-0.3248	1.11088	2.23329	-0.407655
0.74	0	0	0	0	0	0	0	0	0	1.50041	17.4015	-2.78078	0.682577	0	-0.276123	0.103421	1.19946	-0.191675
0.75	0	0	0	0	0	0	0	0	0	0	0	0	0	0	0	0	0	0
0.76	0	0	0	0	0	0	0	0	0	0	0	0	0	0	0	0	0	0
0.77	0	0	0	0	0	0	0	0	0	0	0	0	0	0	0	0	0	0
0.78	0	0	0	0	0	0	0	0	0	0	0	0	0	0	0	0	0	0
0.79	0	0	0	0	0	0	0	0	0	0	0	0	0	0	0	0	0	0
0.8	0	0	0	0	0	0	0	0	0	0	0	0	0	0	0	0	0	0
0.81	0	0	0	0	0	0	0	0	0	0	0	0	0	0	0	0	0	0
0.82	0	0	0	0	0	0	0	0	0	0	0	0	0	0	0	0	0	0
0.83	0	0	0	0	0	0	0	0	0	0	0	0	0	0	0	0	0	0
0.84	-5.80282	16.6586	-5.84499	0.863262	0	-0.231337	0.375315	-1.07745	0.378042	0	0	0	0	0	0	0	0	0
0.85	-26.7285	65.5967	-14.8503	0.925664	0	-0.264335	-0.155569	0.381795	-0.086434	0	0	0	0	0	0	0	0	0
0.86	-74.8342	209.442	-28.8349	0.944928	0	-0.269706	-0.926749	2.59374	-0.357092	0	0	0	0	0	0	0	0	0
0.87	-136.997	477.916	-45.2593	0.94492	0	-0.272928	-1.40142	4.88888	-0.462983	0	0	0	0	0	0	0	0	0
0.88	-171.231	813.329	-54.4527	0.925206	0	-0.277733	-1.32727	6.3044	-0.422082	0	0	0	0	0	0	0	0	0
0.89	-174.591	1147.32	-45.7797	0.890228	0	-0.284182	-0.932684	6.1291	-0.24456	0	0	0	0	0	0	0	0	0
0.9	-188.136	1450.15	-18.8059	0.856041	0	-0.290495	-0.584543	4.50566	-0.0584305	0	0	0	0	0	0	0	0	0
0.91	-209.497	1703.18	12.2594	0.827431	0	-0.295132	-0.299706	2.43657	0.0175383	0	0	0	0	0	0	0	0	0
0.92	-206.13	1897.46	28.4258	0.798159	0	-0.29781	-0.120641	1.11052	0.0166367	0	0	0	0	0	0	0	0	0
0.93	-165.472	2033.52	23.4069	0.766476	0	-0.298763	-0.102507	1.25972	0.0145001	0	0	0	0	0	0	0	0	0
0.94	-106.761	2109.91	8.0173	0.735339	0	-0.298296	-0.144019	2.84624	0.0108153	0	0	0	0	0	0	0	0	0
0.95	-46.8476	2123.96	-4.43325	0.705668	0	-0.296855	-0.113926	5.16512	-0.0107809	0	0	0	0	0	0	0	0	0
0.96	20.8499	2076.08	-10.0525	0.674787	0	-0.295463	0.0730186	7.27065	-0.035205	0	0	0	0	0	0	0	0	0
0.97	101.487	1972.26	-10.0301	0.640834	0	-0.294715	0.432529	8.40561	-0.0427475	0	0	0	0	0	0	0	0	0
0.98	182.478	1821.26	-4.66518	0.605323	0	-0.294106	0.828258	8.26661	-0.0211751	0	0	0	0	0	0	0	0	0
0.99	248.162	1624.07	4.28513	0.569943	0	-0.293292	1.07933	7.06355	0.0186372	0	0	0	0	0	0	0	0	0
1	290.033	1379.45	12.6342	0.534164	0	-0.29257	1.12229	5.33781	0.0488885	0	0	0	0	0	0	0	0	0
